# xmcd
#
# Track frame offsets:
#	150
#	13754
#	29970
#	46805
#	65988
#	87961
#	105960
#	123333
#	143724
#	160860
#	176902
#	194333
#	212960
#	232643
#
# Disc length: 3304 seconds
#
# Revision: 0
# Processed by: cddbd v1.5.2PL0 Copyright (c) Steve Scherf et al.
# Submitted via: audiograbber 1.83.01
#
DISCID=c30ce60e
DTITLE=аябамитг сожиа - сулптылатийа
DYEAR=2000
DGENRE=Greek
TTITLE0=се паы опыс еисаи
TTITLE1=то тиломи
TTITLE2=л╢еноусиафеис
TTITLE3=ема ха соу пы
TTITLE4=сулптылатийа
TTITLE5=ока соу та димы
TTITLE6=пиес
TTITLE7=лисгсе ле
TTITLE8=ха пяосеуволаи
TTITLE9=апожасг
TTITLE10=окос о йослос
TTITLE11=тыяа моиыхы посо л╢ацапас (то моиыхы)
TTITLE12=йакойаияи йаи веилыма лоу
TTITLE13=кеы ма паы левяи т╢астеяиа
EXTD=
EXTT0=
EXTT1=
EXTT2=
EXTT3=
EXTT4=
EXTT5=
EXTT6=
EXTT7=
EXTT8=
EXTT9=
EXTT10=
EXTT11=
EXTT12=
EXTT13=
PLAYORDER=
